<svg width="48" height="40" viewBox="0 0 48 40" fill="none" xmlns="http://www.w3.org/2000/svg">
<path d="M30.773 21.109C30.488 21.584 29.958 21.654 29.162 21.752C28.915 21.784 28.635 21.815 28.315 21.866C28.2145 21.8857 28.1258 21.9439 28.0676 22.0282C28.0095 22.1124 27.9867 22.2161 28.004 22.317C28.054 22.823 28.431 23.231 28.924 23.314C29.339 23.452 29.66 23.791 29.781 24.22C29.901 24.645 29.804 25.103 29.523 25.44C28.95 26.119 27.853 26.919 25.896 26.919C25.714 26.919 25.529 26.911 25.342 26.895C24.942 26.865 24.5432 26.822 24.146 26.766H24.085L23.273 26.64C22.3085 26.4669 21.3325 26.366 20.353 26.338C19.7948 26.3348 19.238 26.3942 18.693 26.515C17.297 26.791 16.323 28.085 16.423 29.532C16.43 31.023 17.525 32.276 18.977 32.454C18.977 32.454 19.038 33.184 18.877 33.157L18.685 33.125C16.6703 32.8009 14.7479 32.0509 13.046 30.925C11.8143 30.1128 10.7099 29.1224 9.769 27.986C4.621 21.776 5.269 12.509 11.231 7.107L11.285 7.057C11.285 7.057 11.354 7.1 11.373 7.084C11.493 6.978 11.788 7.539 11.788 7.539C11.707 7.61012 11.6492 7.70383 11.6219 7.80808C11.5947 7.91233 11.5992 8.02236 11.635 8.124C11.695 8.34 11.88 8.495 12.1 8.516H12.2C12.4892 7.98054 12.8634 7.49557 13.308 7.08C13.6594 6.75693 14.1187 6.57651 14.596 6.574C15.092 6.573 15.567 6.771 15.919 7.127C16.219 7.427 16.477 7.766 16.689 8.135C16.977 8.108 17.281 8.092 17.604 8.092C18.377 8.097 19.148 8.162 19.912 8.284C20.2382 7.91087 20.6192 7.58952 21.042 7.331C21.29 7.181 21.572 7.099 21.862 7.096C22.545 7.141 23.152 7.554 23.458 8.178C23.821 8.795 24.089 9.464 24.254 10.164C26.154 11.811 29.108 15.594 29.177 16.727C29.339 17.171 29.547 17.596 29.8 17.994C30.194 18.658 30.533 19.354 30.812 20.077C30.96 20.407 30.946 20.791 30.773 21.109V21.109Z" fill="white"/>
<path d="M29.808 24.687C29.808 26.711 27.404 27.88 23.915 27.507C21.573 27.26 18.365 27.413 17.762 28.637C16.715 30.724 19.396 33.102 19.281 33.09C19.073 33.09 19.088 33.184 18.896 33.149L18.704 33.117C16.6891 32.7938 14.7665 32.0437 13.065 30.917C12.842 30.767 12.619 30.615 12.4 30.457C10.8214 29.3031 9.56369 27.7652 8.746 25.989C6.262 20.497 9.826 16.731 12.235 15.879C8.604 19.018 10.312 24.342 14.004 25.326C15.1416 25.6339 16.3441 25.604 17.465 25.24C18.2133 25.0573 18.9137 24.7163 19.519 24.24C19.519 24.24 25.2 25.997 27.185 25.617C27.298 25.59 27.409 25.557 27.519 25.518C28.7 25.126 29.254 24.342 28.392 23.863H28.365L28.438 23.808C28.692 23.588 29.808 22.938 29.808 24.687V24.687Z" fill="#DFE3E4"/>
<path d="M35.723 18.084C35.7847 21.9943 34.3321 25.777 31.669 28.641C28.892 31.624 25.033 33.311 21 33.306C20.2871 33.3072 19.575 33.2548 18.87 33.149C14.865 32.556 14.585 26.703 18.535 25.813C20.485 25.373 22.381 25.813 24.169 26.052H24.235C24.619 26.111 25.004 26.154 25.388 26.182C27.465 26.334 28.512 25.53 28.988 24.973C29.0522 24.8942 29.0964 24.801 29.1168 24.7014C29.1371 24.6018 29.1331 24.4987 29.105 24.401C29.0775 24.304 29.0265 24.2154 28.9566 24.1428C28.8866 24.0702 28.7999 24.016 28.704 23.985C28.3443 23.9035 28.0184 23.7132 27.7706 23.44C27.5228 23.1668 27.3651 22.8239 27.319 22.458C27.258 22.164 27.319 21.858 27.487 21.611C27.655 21.364 27.916 21.199 28.207 21.156C29.842 20.905 30.407 21.023 30.157 20.313C29.665 18.923 28.519 17.425 28.481 16.763C28.435 15.978 25.573 12.145 23.619 10.544C23.4825 9.83441 23.2222 9.15438 22.85 8.535C22.504 7.939 21.965 7.586 21.385 7.939C20.9156 8.23305 20.5016 8.60743 20.162 9.045C18.8857 8.79913 17.5794 8.74889 16.288 8.896C16.0806 8.42382 15.7889 7.99344 15.427 7.626C15.2084 7.40948 14.9145 7.28602 14.6068 7.28155C14.2992 7.27708 14.0018 7.39193 13.777 7.602C13.2714 8.06383 12.8677 8.62617 12.592 9.253L12.015 9.198C11.7721 9.17332 11.5419 9.07779 11.3529 8.92328C11.1639 8.76877 11.0245 8.56211 10.952 8.329C10.8772 8.09439 10.8717 7.84319 10.9361 7.60551C11.0004 7.36784 11.132 7.15378 11.315 6.989C15.633 3.145 21.747 2.207 26.983 4.587C32.219 6.967 35.623 12.231 35.708 18.077L35.723 18.085V18.084Z" fill="#FF4F24"/>
<path d="M20.462 16.954C21.323 18.692 22.215 18.48 23.235 18.131C23.235 18.131 22.638 15.122 20.462 16.954Z" fill="#FF4F24"/>
<path opacity="0.1" d="M32.154 28.108C31.9656 28.2808 31.7953 28.4725 31.646 28.68C28.867 31.643 25.02 33.315 21 33.306C20.2871 33.3072 19.575 33.2548 18.87 33.149C14.865 32.556 14.585 26.703 18.535 25.813C20.485 25.373 22.381 25.813 24.169 26.052C13.896 24.577 22.046 37.523 32.154 28.108V28.108Z" fill="black"/>
<path d="M15.565 9.552C14.831 9.665 14.062 9.81 13.392 9.967C13.5482 9.42252 13.8408 8.92689 14.242 8.527C14.3183 8.47262 14.409 8.44183 14.5027 8.43845C14.5963 8.43507 14.6889 8.45926 14.769 8.508C15.103 8.795 15.374 9.151 15.565 9.552V9.552Z" fill="#DFE3E4"/>
<path opacity="0.032258" d="M9.49108 10.8086C8.07562 11.7671 6.57043 12.4676 5.12039 12.7202C3.50072 11.2625 2.15567 9.03907 1.52746 7.23312C2.74342 7.73562 3.88229 7.78178 4.83548 7.61693C5.76417 9.08359 7.40943 10.5562 9.49108 10.8086Z" fill="#FF0061"/>
<path opacity="0.064516" d="M9.42496 10.8043C8.02442 11.7372 6.51923 12.4378 5.0841 12.6648C3.49004 11.222 2.18127 9.05398 1.53816 7.27363C2.75411 7.77613 3.89298 7.82229 4.86108 7.63184C5.78977 9.09849 7.38383 10.5412 9.42496 10.8043Z" fill="#FF0061"/>
<path opacity="0.096774" d="M9.35885 10.8001C7.95831 11.733 6.49363 12.4229 5.0478 12.6094C3.50495 11.1964 2.20687 9.06889 1.57445 7.32906C2.7904 7.83156 3.92927 7.87772 4.89738 7.68727C5.80046 9.13901 7.37314 10.5007 9.35885 10.8001Z" fill="#FF0061"/>
<path opacity="0.129" d="M9.29273 10.7959C7.9071 11.7032 6.45733 12.3674 5.0222 12.5944C3.50495 11.1964 2.24316 9.12432 1.61074 7.38449C2.82669 7.88699 3.93996 7.91823 4.90807 7.72778C5.80046 9.13901 7.34754 10.4858 9.29273 10.7959Z" fill="#FF0061"/>
<path opacity="0.1613" d="M9.22661 10.7917C7.84098 11.699 6.40613 12.3376 4.98591 12.539C3.49425 11.1559 2.26876 9.13923 1.64703 7.43992C2.83738 7.9275 3.97625 7.97366 4.94435 7.78321C5.82605 9.15393 7.32193 10.4709 9.22661 10.7917Z" fill="#FF0061"/>
<path opacity="0.1935" d="M9.1605 10.7875C7.78978 11.6692 6.35493 12.3078 4.94962 12.4836C3.50917 11.1303 2.29437 9.15414 1.68333 7.49533C2.87368 7.98292 4.02746 8.00348 4.99556 7.81303C5.85166 9.16883 7.32193 10.4709 9.1605 10.7875Z" fill="#FF0061"/>
<path opacity="0.2258" d="M9.09439 10.7832C7.73858 11.6393 6.30372 12.2779 4.89841 12.4538C3.49848 11.0898 2.30506 9.19464 1.6791 7.56143C2.88436 8.02342 3.99764 8.05467 4.96574 7.86422C5.85166 9.16882 7.31124 10.4304 9.09439 10.7832Z" fill="#FF0061"/>
<path opacity="0.2581" d="M9.02827 10.779C7.67246 11.6351 6.25252 12.2481 4.86212 12.3984C3.48779 11.0493 2.33066 9.20957 1.71539 7.61688C2.92066 8.07886 4.03393 8.11011 5.00203 7.91966C5.87726 9.18375 7.28564 10.4155 9.02827 10.779Z" fill="#FF0061"/>
<path opacity="0.2903" d="M8.96216 10.7748C7.62126 11.6053 6.21623 12.1927 4.81092 12.3685C3.48779 11.0493 2.34135 9.25008 1.72608 7.65739C2.93135 8.11938 4.04462 8.15062 5.02763 7.93457C5.88795 9.22426 7.26004 10.4006 8.96216 10.7748Z" fill="#FF0061"/>
<path opacity="0.3226" d="M8.89604 10.7706C7.55514 11.6011 6.16502 12.1629 4.80023 12.328C3.5027 11.0237 2.39256 9.2799 1.78798 7.72772C2.96764 8.17479 4.08091 8.20604 5.06393 7.98999C5.88796 9.22425 7.24935 10.3601 8.89604 10.7706Z" fill="#FF0061"/>
<path opacity="0.3548" d="M8.82992 10.7663C7.50394 11.5712 6.11382 12.1331 4.74902 12.2982C3.4771 11.0088 2.40325 9.32041 1.80936 7.80875C2.98902 8.25582 4.1172 8.26147 5.0853 8.07102C5.91355 9.23917 7.22375 10.3451 8.82992 10.7663Z" fill="#FF0061"/>
<path opacity="0.3871" d="M8.75311 10.7216C7.44204 11.5009 6.05192 12.0627 4.70204 12.2023C3.4664 10.9683 2.41815 9.29482 1.80936 7.80876C2.98902 8.25583 4.1172 8.26148 5.0853 8.07103C5.93915 9.25409 7.19814 10.3302 8.75311 10.7216Z" fill="#FF0061"/>
<path opacity="0.4194" d="M8.687 10.7174C7.37593 11.4967 6.00072 12.0329 4.65083 12.1724C3.4408 10.9534 2.42884 9.33533 1.83074 7.88979C3.0104 8.33686 4.11298 8.32759 5.09599 8.11154C5.93916 9.25409 7.17254 10.3153 8.687 10.7174Z" fill="#FF0061"/>
<path opacity="0.4516" d="M8.62089 10.7132C7.32473 11.4669 5.97512 12.018 4.61455 12.117C3.45572 10.9277 2.45445 9.35023 1.86703 7.9452C3.06161 8.36667 4.14927 8.38301 5.13229 8.16696C5.96476 9.26899 7.17254 10.3153 8.62089 10.7132Z" fill="#FF0061"/>
<path opacity="0.4839" d="M8.55477 10.7089C7.25862 11.4626 5.92392 11.9882 4.56334 12.0872C3.43012 10.9128 2.46514 9.39074 1.86281 8.0113C3.03178 8.41786 4.15997 8.42351 5.12807 8.23306C5.97545 9.30949 7.16186 10.2748 8.55477 10.7089Z" fill="#FF0061"/>
<path opacity="0.5161" d="M8.50357 10.6791C7.22232 11.4072 5.88762 11.9327 4.56756 12.0211C3.45994 10.8616 2.53126 9.39497 1.95453 8.03045C3.1235 8.43701 4.25168 8.44266 5.20909 8.2117C5.97545 9.30951 7.13625 10.2599 8.50357 10.6791Z" fill="#FF0061"/>
<path opacity="0.5484" d="M8.43745 10.6749C7.17112 11.3774 5.83642 11.9029 4.51636 11.9912C3.45994 10.8616 2.54195 9.43549 1.97591 8.11148C3.14488 8.51804 4.24746 8.50878 5.23048 8.29272C6.00105 9.32442 7.11065 10.245 8.43745 10.6749Z" fill="#FF0061"/>
<path opacity="0.5806" d="M8.37134 10.6707C7.105 11.3732 5.78522 11.8731 4.48007 11.9358C3.44925 10.8211 2.56755 9.4504 1.9866 8.152C3.15557 8.55856 4.25815 8.54929 5.24116 8.33324C6.02665 9.33934 7.08505 10.2301 8.37134 10.6707Z" fill="#FF0061"/>
<path opacity="0.6129" d="M8.32013 10.6409C7.06871 11.3178 5.74892 11.8177 4.44377 11.8804C3.43855 10.7806 2.59315 9.46531 2.02289 8.20742C3.19186 8.61398 4.29444 8.60472 5.25185 8.37375C6.02665 9.33934 7.05944 10.2152 8.32013 10.6409Z" fill="#FF0061"/>
<path opacity="0.6452" d="M8.25402 10.6366C7.0026 11.3135 5.69772 11.7878 4.40749 11.825C3.43856 10.7806 2.61875 9.48022 2.05919 8.26284C3.21747 8.62889 4.32005 8.61962 5.30306 8.40357C6.05226 9.35424 7.05945 10.2152 8.25402 10.6366Z" fill="#FF0061"/>
<path opacity="0.6774" d="M8.18791 10.6324C6.95139 11.2837 5.64652 11.758 4.38189 11.81C3.43856 10.7806 2.65505 9.53563 2.10617 8.35877C3.26445 8.72481 4.36703 8.71555 5.35004 8.4995C6.05226 9.35423 7.04876 10.1746 8.18791 10.6324Z" fill="#FF0061"/>
<path opacity="0.7097" d="M8.1367 10.6026C6.92579 11.2688 5.61022 11.7026 4.34559 11.7546C3.45347 10.755 2.68064 9.55056 2.11685 8.3993C3.27513 8.76534 4.37771 8.75608 5.33513 8.52511C6.06294 9.39476 7.02315 10.1597 8.1367 10.6026Z" fill="#FF0061"/>
<path opacity="0.7419" d="M8.07058 10.5984C6.87459 11.239 5.58462 11.6877 4.3093 11.6992C3.44278 10.7145 2.70625 9.56547 2.15315 8.45472C3.31143 8.82077 4.38841 8.79659 5.38633 8.55494C6.08855 9.40967 6.99755 10.1448 8.07058 10.5984Z" fill="#FF0061"/>
<path opacity="0.7742" d="M8.01938 10.5686C6.82338 11.2092 5.54833 11.6323 4.273 11.6438C3.41718 10.6996 2.70624 9.56548 2.18944 8.51015C3.32212 8.86129 4.43961 8.82642 5.39702 8.59546C6.08855 9.40968 6.97195 10.1299 8.01938 10.5686Z" fill="#FF0061"/>
<path opacity="0.8065" d="M7.95326 10.5643C6.77218 11.1793 5.49713 11.6024 4.2218 11.614C3.41718 10.6996 2.71694 9.60599 2.21082 8.59118C3.3435 8.94231 4.46099 8.90745 5.4184 8.67648C6.11415 9.42459 6.97195 10.1299 7.95326 10.5643Z" fill="#FF0061"/>
<path opacity="0.8387" d="M7.90206 10.5345C6.72097 11.1495 5.46083 11.547 4.21111 11.5734C3.43209 10.674 2.76814 9.63581 2.28762 8.63591C3.4203 8.98705 4.51219 8.93727 5.51012 8.69562C6.11415 9.42458 6.94635 10.115 7.90206 10.5345Z" fill="#FF0061"/>
<path opacity="0.871" d="M7.85086 10.5047C6.68468 11.0941 5.42454 11.4916 4.18973 11.4924C3.46191 10.6228 2.80865 9.62512 2.31323 8.65082C3.46082 8.97636 4.5378 8.95218 5.51012 8.69561C6.13975 9.43949 6.92074 10.1001 7.85086 10.5047Z" fill="#FF0061"/>
<path opacity="0.9032" d="M7.78474 10.5005C6.61856 11.0899 5.37334 11.4618 4.13852 11.4626C3.4214 10.6335 2.81934 9.66563 2.33461 8.73185C3.4822 9.05738 4.57409 9.0076 5.5315 8.77664C6.12484 9.4651 6.89514 10.0852 7.78474 10.5005Z" fill="#FF0061"/>
<path opacity="0.9355" d="M7.73354 10.4706C6.58227 11.0344 5.33705 11.4063 4.10223 11.4072C3.41071 10.5929 2.84495 9.68054 2.3709 8.78727C3.49289 9.09789 4.58478 9.04811 5.5571 8.79154C6.15044 9.48 6.86954 10.0703 7.73354 10.4706Z" fill="#FF0061"/>
<path opacity="0.9677" d="M7.66742 10.4664C6.51616 11.0302 5.28584 11.3765 4.07663 11.3923C3.43631 10.6079 2.86632 9.76157 2.41788 8.88321C3.53987 9.19383 4.63176 9.14406 5.60408 8.88749C6.15044 9.48001 6.86954 10.0703 7.66742 10.4664Z" fill="#FF0061"/>
<path d="M7.59061 10.4217C6.45426 10.9599 5.24955 11.3211 4.02965 11.2963C3.40001 10.5524 2.85563 9.72106 2.44348 8.89813C3.56547 9.20875 4.65736 9.15897 5.62968 8.90241C6.17604 9.49492 6.84394 10.0554 7.59061 10.4217Z" fill="#FF0061"/>
<path opacity="0.032258" d="M39.0929 27.4649C38.826 29.7029 38.6206 31.8377 38.6058 33.9835C35.4451 32.5848 32.2469 33.0869 28.1185 33.2618C27.7199 32.2799 27.3995 31.1197 27.1181 29.6117C31.6319 28.2256 35.2997 26.6542 39.0929 27.4649Z" fill="#4BD700"/>
<path opacity="0.064516" d="M39.0031 27.5204C38.7361 29.7581 38.5474 31.8177 38.5772 33.9354C35.4895 32.5565 32.3361 33.031 28.2807 33.2257C27.8821 32.2439 27.5618 31.0839 27.3085 29.6233C31.7328 28.2927 35.311 26.7768 39.0031 27.5204Z" fill="#4BD700"/>
<path opacity="0.096774" d="M38.9417 27.6231C38.6912 29.7855 38.5024 31.8449 38.5039 33.9151C35.4445 32.584 32.336 33.0311 28.3983 33.2178C27.9999 32.2361 27.7245 31.0484 27.4265 29.6159C31.7611 28.3406 35.2945 26.8522 38.9417 27.6231Z" fill="#4BD700"/>
<path opacity="0.129" d="M38.8513 27.6781C38.6009 29.8405 38.4568 31.872 38.4751 33.867C35.4886 32.5553 32.4249 32.9745 28.5152 33.2085C28.1168 32.2269 27.8414 31.0392 27.5715 29.6539C31.8613 28.4065 35.3051 26.9739 38.8513 27.6781Z" fill="#4BD700"/>
<path opacity="0.1613" d="M38.7884 27.7793C38.5546 29.8664 38.4104 31.8976 38.4285 33.8924C35.4702 32.6286 32.4513 33.0203 28.6594 33.2463C28.3059 32.237 27.9858 31.0773 27.716 29.6922C31.8881 28.4528 35.2704 27.123 38.7884 27.7793Z" fill="#4BD700"/>
<path opacity="0.1935" d="M38.7262 27.8816C38.4923 29.9686 38.3648 31.9247 38.3549 33.8722C35.4246 32.6557 32.5234 33.0389 28.7763 33.2371C28.4228 32.2277 28.1308 31.1153 27.861 29.7303C31.9435 28.5466 35.2529 27.1974 38.7262 27.8816Z" fill="#4BD700"/>
<path opacity="0.2258" d="M38.6373 27.9375C38.4199 29.949 38.2921 31.9047 38.3267 33.8239C35.4696 32.6278 32.5685 33.0117 28.9392 33.2023C28.5858 32.1932 28.294 31.0812 28.0244 29.6965C32.0173 28.5678 35.2652 27.3209 38.6373 27.9375Z" fill="#4BD700"/>
<path opacity="0.2581" d="M38.575 28.0397C38.3576 30.0512 38.2466 31.9318 38.2532 33.8037C35.4241 32.6549 32.6126 32.983 29.0561 33.193C28.7308 32.2312 28.4109 31.072 28.2142 29.7066C32.0726 28.6616 35.2477 27.3953 38.575 28.0397Z" fill="#4BD700"/>
<path opacity="0.2903" d="M38.4847 28.0948C38.284 30.0311 38.173 31.9116 38.1796 33.7835C35.4233 32.6541 32.6118 32.9823 29.173 33.1838C28.8476 32.222 28.5726 31.0348 28.3591 29.7446C32.1448 28.6802 35.2583 27.517 38.4847 28.0948Z" fill="#4BD700"/>
<path opacity="0.3226" d="M38.4224 28.1964C38.2215 30.1323 38.1269 31.9374 38.178 33.781C35.4501 32.6998 32.7283 32.973 29.3624 33.1947C29.0372 32.2333 28.7904 31.0936 28.5491 29.7566C32.2003 28.775 35.269 27.639 38.4224 28.1964Z" fill="#4BD700"/>
<path opacity="0.3548" d="M38.3595 28.2982C38.1755 30.1592 38.081 31.9643 38.1042 33.7608C35.449 32.6986 32.7272 32.9715 29.4341 33.2123C29.1088 32.2507 28.8619 31.111 28.6486 29.821C32.227 28.8204 35.2509 27.7126 38.3595 28.2982Z" fill="#4BD700"/>
<path opacity="0.3871" d="M38.2692 28.3532C38.0852 30.2142 38.0355 31.9914 38.0306 33.7406C35.4035 32.7258 32.7712 32.9429 29.5509 33.203C29.2257 32.2415 29.0068 31.149 28.7935 29.8591C32.3271 28.8863 35.2615 27.8342 38.2692 28.3532Z" fill="#4BD700"/>
<path opacity="0.4194" d="M38.2078 28.4559C38.0404 30.2415 37.9905 32.0184 37.9574 33.7203C35.4033 32.7253 32.7711 32.9429 29.6685 33.195C29.3434 32.2337 29.1246 31.1414 28.9114 29.8517C32.3554 28.9342 35.273 27.9568 38.2078 28.4559Z" fill="#4BD700"/>
<path opacity="0.4516" d="M38.1181 28.5114C37.9505 30.2968 37.9173 31.9984 37.9289 33.6721C35.4029 32.7249 32.8884 32.9343 29.8306 33.1589C29.5784 32.217 29.2869 31.1056 29.1018 29.8633C32.4563 29.0012 35.2562 28.0321 38.1181 28.5114Z" fill="#4BD700"/>
<path opacity="0.4839" d="M38.0544 28.6121C37.9036 30.3224 37.8703 32.024 37.8819 33.6977C35.4287 32.7698 32.9142 32.9793 29.9741 33.1954C29.7219 32.2535 29.4584 31.1894 29.2734 29.9471C32.4822 29.0463 35.2653 28.1523 38.0544 28.6121Z" fill="#4BD700"/>
<path opacity="0.5161" d="M37.9916 28.714C37.8408 30.4243 37.8244 32.0509 37.808 33.6775C35.3828 32.7966 32.9579 32.9499 30.0457 33.213C29.7935 32.271 29.53 31.2067 29.3728 30.0115C32.5369 29.139 35.2472 28.2258 37.9916 28.714Z" fill="#4BD700"/>
<path opacity="0.5484" d="M37.903 28.7698C37.7687 30.4046 37.7072 32.0587 37.7353 33.657C35.3832 32.7965 32.9584 32.9508 30.1359 33.159C29.8839 32.2174 29.6486 31.2007 29.4637 29.9588C32.6109 29.1603 35.2149 28.3773 37.903 28.7698Z" fill="#4BD700"/>
<path opacity="0.5806" d="M37.8413 28.8724C37.7069 30.5071 37.662 32.0858 37.7068 33.6088C35.3828 32.796 33.0476 32.8949 30.298 33.1229C30.046 32.1815 29.8108 31.165 29.6541 29.9704C32.6669 29.2552 35.1981 28.4525 37.8413 28.8724Z" fill="#4BD700"/>
<path opacity="0.6129" d="M37.7776 28.9732C37.6879 30.5799 37.6151 32.1114 37.6598 33.6343C35.4087 32.8409 33.0735 32.94 30.4415 33.1594C30.2175 32.2652 29.9823 31.2487 29.8256 30.0542C32.6928 29.3004 35.2072 28.5727 37.7776 28.9732Z" fill="#4BD700"/>
<path opacity="0.6452" d="M37.6873 29.0283C37.5696 30.5877 37.5415 32.0913 37.5863 33.6141C35.3631 32.868 33.1455 32.9585 30.5583 33.1501C30.3344 32.256 30.0993 31.2396 29.9705 30.0922C32.7929 29.3662 35.2178 28.6943 37.6873 29.0283Z" fill="#4BD700"/>
<path opacity="0.6774" d="M37.6244 29.1301C37.5516 30.6617 37.4956 32.1182 37.5124 33.594C35.362 32.8669 33.1444 32.9571 30.63 33.1677C30.406 32.2734 30.1708 31.2569 30.07 30.1566C32.8196 29.4117 35.1996 28.7679 37.6244 29.1301Z" fill="#4BD700"/>
<path opacity="0.7097" d="M37.5808 29.159C37.4798 30.6432 37.4684 32.0715 37.485 33.547C35.3628 32.8677 33.2348 32.9026 30.7932 33.133C30.5694 32.239 30.3623 31.2699 30.2336 30.1227C32.9216 29.4802 35.2121 28.8918 37.5808 29.159Z" fill="#4BD700"/>
<path opacity="0.7419" d="M37.52 29.2619C37.4635 30.7178 37.4239 32.0986 37.457 33.4985C35.4078 32.8396 33.2798 32.8755 30.9279 33.0511C30.7042 32.1574 30.4973 31.1887 30.352 30.1169C32.9505 29.5293 35.1962 28.9679 37.52 29.2619Z" fill="#4BD700"/>
<path opacity="0.7742" d="M37.4563 29.3627C37.3718 30.7714 37.3321 32.1521 37.4101 33.5241C35.4336 32.8845 33.3785 32.9397 31.0713 33.0875C30.8756 32.241 30.6688 31.2724 30.5236 30.2007C33.0044 29.6216 35.2053 29.0881 37.4563 29.3627Z" fill="#4BD700"/>
<path opacity="0.8065" d="M37.3668 29.4188C37.2824 30.8276 37.2876 32.1804 37.3096 33.4582C35.3611 32.8655 33.3508 32.8925 31.1164 33.0593C30.9207 32.2128 30.7418 31.2911 30.5965 30.2194C33.0774 29.6405 35.1886 29.1631 37.3668 29.4188Z" fill="#4BD700"/>
<path opacity="0.8387" d="M37.3032 29.5196C37.2355 30.8532 37.2407 32.206 37.2626 33.4838C35.3869 32.9104 33.4214 32.9097 31.2599 33.0958C31.0642 32.2493 30.8853 31.3277 30.768 30.3031C33.1313 29.7329 35.1978 29.2833 37.3032 29.5196Z" fill="#4BD700"/>
<path opacity="0.871" d="M37.2395 29.6204C37.1718 30.954 37.1937 32.2317 37.2156 33.5093C35.3679 32.9833 33.492 32.9268 31.4033 33.1322C31.2076 32.2858 31.0567 31.4114 30.9395 30.3869C33.1572 29.7782 35.1789 29.3563 37.2395 29.6204Z" fill="#4BD700"/>
<path opacity="0.9032" d="M37.1515 29.6772C37.1005 30.9355 37.1222 32.2128 37.116 33.4431C35.3412 32.937 33.4933 32.9282 31.4662 33.0313C31.2986 32.2322 31.1199 31.311 31.0308 30.3338C33.2149 29.8746 35.2366 29.4521 37.1515 29.6772Z" fill="#4BD700"/>
<path opacity="0.9355" d="M37.133 29.7511C37.082 31.0094 37.0758 32.2398 37.1144 33.4422C35.3844 32.9078 33.6093 32.918 31.6101 33.068C31.4425 32.2688 31.2917 31.3946 31.2026 30.4174C33.3139 29.9392 35.218 29.5258 37.133 29.7511Z" fill="#4BD700"/>
<path opacity="0.9677" d="M37.0713 29.8537C37.037 31.0367 37.0307 32.2668 37.086 33.3939C35.384 32.9073 33.6537 32.8901 31.7721 33.0319C31.6046 32.233 31.4539 31.359 31.3481 30.457C33.3419 29.9871 35.2292 29.6482 37.0713 29.8537Z" fill="#4BD700"/>
<path d="M37.0077 29.9545C36.9733 31.1374 36.9838 32.2924 37.039 33.4194C35.4098 32.9522 33.7243 32.9073 31.9155 33.0684C31.7481 32.2695 31.6254 31.4427 31.5196 30.5408C33.3958 30.0795 35.2103 29.7213 37.0077 29.9545Z" fill="#4BD700"/>
<path opacity="0.032258" d="M1.19706 25.8355C4.05984 25.9344 7.50841 23.5338 8.06612 18.9766C8.87042 21.708 9.67473 24.4393 10.4486 27.148C8.08767 27.3287 5.90982 27.8355 3.58656 27.9022C2.81035 27.2285 2.00371 26.532 1.19706 25.8355Z" fill="#FFD500"/>
<path opacity="0.064516" d="M1.2502 25.8278C4.07481 25.8509 7.45529 23.5415 8.05116 19.0602C8.8173 21.7157 9.60614 24.3408 10.3723 26.9963C8.07222 27.2225 5.92479 27.7519 3.63197 27.8414C2.83306 27.198 2.05684 26.5243 1.2502 25.8278Z" fill="#FFD500"/>
<path opacity="0.096774" d="M1.33375 25.8428C4.12794 25.8432 7.42485 23.5188 8.04391 19.1969C8.79459 21.7461 9.55301 24.3485 10.3037 26.8978C8.09492 27.192 5.92479 27.7519 3.65466 27.8109C2.88618 27.1903 2.10996 26.5165 1.33375 25.8428Z" fill="#FFD500"/>
<path opacity="0.129" d="M1.41731 25.8577C4.18107 25.8354 7.40216 23.5492 8.05937 19.3031C8.80233 21.7993 9.49214 24.3031 10.2351 26.7993C8.06448 27.1694 5.91706 27.6988 3.65466 27.8109C2.90888 27.1599 2.1631 26.5088 1.41731 25.8577Z" fill="#FFD500"/>
<path opacity="0.1613" d="M1.50087 25.8727C4.20377 25.805 7.37945 23.5797 8.05213 19.4398C8.75692 21.8601 9.46171 24.2804 10.1665 26.7008C8.05675 27.1162 5.91706 27.6988 3.7078 27.8032C2.96201 27.1521 2.21623 26.5011 1.50087 25.8727Z" fill="#FFD500"/>
<path opacity="0.1935" d="M1.55401 25.865C4.22647 25.7746 7.32633 23.5874 8.03716 19.5234C8.7038 21.8678 9.40086 24.235 10.0675 26.5795C8.01859 27.0404 5.90933 27.6457 3.70007 27.7501C2.98471 27.1217 2.26936 26.4933 1.55401 25.865Z" fill="#FFD500"/>
<path opacity="0.2258" d="M1.63757 25.8799C4.3023 25.7364 7.29589 23.5647 8.02992 19.6601C8.68882 21.9514 9.34773 24.2428 9.9989 26.481C7.98816 27.0177 5.9016 27.5925 3.72277 27.7196C3.00741 27.0913 2.32249 26.4856 1.63757 25.8799Z" fill="#FFD500"/>
<path opacity="0.2581" d="M1.69069 25.8722C4.29457 25.6833 7.24277 23.5724 7.98452 19.7209C8.60527 21.9364 9.24871 24.1215 9.89988 26.3598C7.95001 26.9419 5.87117 27.5698 3.71504 27.6665C3.06055 27.0835 2.37562 26.4779 1.69069 25.8722Z" fill="#FFD500"/>
<path opacity="0.2903" d="M1.77425 25.8872C4.3477 25.6755 7.22006 23.6029 7.97728 19.8576C8.59029 22.02 9.19558 24.1293 9.80859 26.2917C7.88915 26.8965 5.84074 27.5471 3.71504 27.6665C3.08325 27.0531 2.42875 26.4702 1.77425 25.8872Z" fill="#FFD500"/>
<path opacity="0.3226" d="M1.85782 25.9022C4.40083 25.6678 7.19736 23.6333 7.99274 19.9639C8.59029 22.02 9.16514 24.1066 9.79312 26.1854C7.93454 26.8356 5.88614 27.4863 3.79086 27.6284C3.13637 27.0454 2.48188 26.4624 1.85782 25.9022Z" fill="#FFD500"/>
<path opacity="0.3548" d="M1.93365 25.864C4.44624 25.607 7.16693 23.6106 7.97777 20.0474C8.56759 22.0504 9.10428 24.0612 9.6941 26.0642C7.89638 26.7598 5.84798 27.4104 3.80584 27.5448C3.18177 26.9845 2.55771 26.4243 1.93365 25.864Z" fill="#FFD500"/>
<path opacity="0.3871" d="M2.0172 25.879C4.46893 25.5765 7.14423 23.641 7.99323 20.1537C8.54489 22.0809 9.10429 24.0612 9.65595 25.9883C7.86595 26.7371 5.90111 27.4027 3.85897 27.5371C3.23491 26.9768 2.61084 26.4165 2.0172 25.879Z" fill="#FFD500"/>
<path opacity="0.4194" d="M2.07034 25.8712C4.49163 25.5461 7.0911 23.6488 7.92513 20.245C8.46906 22.119 8.99029 24.0235 9.53422 25.8975C7.80509 26.6917 5.84025 27.3573 3.82854 27.5144C3.25761 26.9464 2.66397 26.4088 2.07034 25.8712Z" fill="#FFD500"/>
<path opacity="0.4516" d="M2.1539 25.8862C4.52206 25.5688 7.0684 23.6792 7.94059 20.3513C8.44636 22.1495 8.98257 23.9704 9.46564 25.799C7.76694 26.6158 5.83252 27.3042 3.87394 27.4535C3.31073 26.9386 2.7171 26.4011 2.1539 25.8862Z" fill="#FFD500"/>
<path opacity="0.4839" d="M2.26016 25.8708C4.5979 25.5306 7.0911 23.6488 7.95605 20.4575C8.45409 22.2026 8.95213 23.9477 9.42747 25.7232C7.78963 26.5854 5.85522 27.2738 3.92707 27.4458C3.33343 26.9082 2.77023 26.3933 2.26016 25.8708Z" fill="#FFD500"/>
<path opacity="0.5161" d="M2.31329 25.863C4.62059 25.5002 7.03797 23.6565 7.88795 20.5488C8.37826 22.2408 8.83814 23.91 9.30575 25.6324C7.69834 26.5173 5.81706 27.1979 3.86621 27.4004C3.38656 26.9005 2.84606 26.3552 2.31329 25.863Z" fill="#FFD500"/>
<path opacity="0.5484" d="M2.39685 25.878C4.64329 25.4698 7.01527 23.6869 7.90341 20.6551C8.35556 22.2712 8.83814 23.91 9.26759 25.5566C7.69061 26.4642 5.83976 27.1675 3.94204 27.3622C3.43197 26.8396 2.89919 26.3475 2.39685 25.878Z" fill="#FFD500"/>
<path opacity="0.5806" d="M2.44998 25.8703C4.66599 25.4393 6.96214 23.6946 7.86574 20.769C8.31016 22.332 8.73188 23.9255 9.1763 25.4884C7.62975 26.4188 5.80933 27.1448 3.94204 27.3622C3.4851 26.8319 2.95232 26.3397 2.44998 25.8703Z" fill="#FFD500"/>
<path opacity="0.6129" d="M2.55624 25.8548C4.71913 25.4316 6.96214 23.6946 7.87347 20.8222C8.31016 22.332 8.72415 23.8723 9.16084 25.3822C7.64472 26.3352 5.847 27.0308 4.01014 27.2709C3.5078 26.8015 3.00546 26.332 2.55624 25.8548Z" fill="#FFD500"/>
<path opacity="0.6452" d="M2.60937 25.8471C4.74182 25.4012 6.90901 23.7024 7.8358 20.9362C8.26476 22.3929 8.64059 23.8574 9.06955 25.3141C7.60656 26.2594 5.81657 27.0081 4.03284 27.2405C3.56093 26.7937 3.08128 26.2938 2.60937 25.8471Z" fill="#FFD500"/>
<path opacity="0.6774" d="M2.71563 25.8316C4.81766 25.363 6.90901 23.7024 7.85126 21.0424C8.24206 22.4233 8.64059 23.8574 9.0314 25.2383C7.59884 26.2062 5.86197 26.9472 4.05554 27.2101C3.60633 26.7329 3.13441 26.2861 2.71563 25.8316Z" fill="#FFD500"/>
<path opacity="0.7097" d="M2.76876 25.8239C4.81766 25.363 6.88631 23.7328 7.80586 21.1033C8.16623 22.4615 8.5493 23.7893 8.9401 25.1702C7.53797 26.1608 5.83154 26.9245 4.07824 27.1796C3.62902 26.7024 3.18755 26.2784 2.76876 25.8239Z" fill="#FFD500"/>
<path opacity="0.7419" d="M2.82189 25.8162C4.80993 25.3099 6.83318 23.7405 7.76819 21.2173C8.12083 22.5223 8.49617 23.797 8.84881 25.1021C7.47711 26.1154 5.79338 26.8487 4.07051 27.1265C3.68216 26.6947 3.26338 26.2402 2.82189 25.8162Z" fill="#FFD500"/>
<path opacity="0.7742" d="M2.92815 25.8007C4.88575 25.2717 6.83318 23.7405 7.75322 21.3008C8.09813 22.5528 8.46574 23.7743 8.81065 25.0262C7.49208 26.0319 5.83878 26.7879 4.11591 27.0656C3.72756 26.6339 3.3165 26.2325 2.92815 25.8007Z" fill="#FFD500"/>
<path opacity="0.8065" d="M2.98128 25.793C4.88576 25.2717 6.81048 23.771 7.73824 21.3844C8.07543 22.5832 8.41261 23.782 8.71936 24.9581C7.43122 25.9865 5.77792 26.7425 4.13861 27.0352C3.78069 26.6261 3.39234 26.1943 2.98128 25.793Z" fill="#FFD500"/>
<path opacity="0.8387" d="M3.08755 25.7775C4.96159 25.2336 6.81048 23.771 7.75371 21.4907C8.08316 22.6363 8.38218 23.7593 8.71163 24.905C7.45392 25.9561 5.85375 26.7043 4.21444 26.9971C3.80339 26.5957 3.44547 26.1866 3.08755 25.7775Z" fill="#FFD500"/>
<path opacity="0.871" d="M3.14067 25.7698C4.96158 25.2336 6.75735 23.7787 7.7083 21.5515C8.03003 22.6441 8.32132 23.7139 8.64304 24.8065C7.38533 25.8575 5.83829 26.598 4.22941 26.9135C3.84879 26.5348 3.49859 26.1789 3.14067 25.7698Z" fill="#FFD500"/>
<path opacity="0.9032" d="M3.1938 25.762C4.98429 25.2031 6.71195 23.8396 7.67064 21.6655C7.98463 22.7049 8.24549 23.7521 8.55948 24.7915C7.3549 25.8348 5.83829 26.598 4.22941 26.9135C3.90192 26.5271 3.57443 26.1407 3.1938 25.762Z" fill="#FFD500"/>
<path opacity="0.9355" d="M3.30007 25.7466C5.03742 25.1954 6.71195 23.8396 7.65567 21.7491C7.93923 22.7658 8.21506 23.7294 8.49862 24.7461C7.32447 25.8121 5.83056 26.5449 4.28254 26.9058C3.94732 26.4662 3.59713 26.1103 3.30007 25.7466Z" fill="#FFD500"/>
<path opacity="0.9677" d="M3.3532 25.7389C5.06012 25.165 6.68925 23.87 7.6407 21.8326C7.91653 22.7962 8.18463 23.7067 8.46046 24.6703C7.30901 25.7059 5.84553 26.4613 4.35064 26.8145C4.00045 26.4585 3.67296 26.0721 3.3532 25.7389Z" fill="#FFD500"/>
<path d="M3.42902 25.7007C5.08281 25.1346 6.65882 23.8473 7.59529 21.8935C7.8634 22.804 8.10107 23.6917 8.36917 24.6022C7.24815 25.6605 5.80737 26.3855 4.34291 26.7613C4.04585 26.3977 3.72609 26.0644 3.42902 25.7007Z" fill="#FFD500"/>
<path opacity="0.032258" d="M42.8756 16.484C43.8277 17.4464 44.6959 18.6887 45.5233 20.3161C43.1868 21.3108 41.6999 24.3741 40.2359 25.7496C39.3178 24.7733 38.2832 23.8036 37.1621 22.6236C38.9952 22.2438 40.6434 18.9918 42.8756 16.484Z" fill="#FF6A00"/>
<path opacity="0.064516" d="M42.8401 16.4997C43.7922 17.4622 44.6604 18.7046 45.4733 20.297C43.137 21.2917 41.7182 24.3275 40.2399 25.668C39.3219 24.6916 38.3016 23.7569 37.1662 22.5418C39.0136 22.197 40.608 19.0077 42.8401 16.4997Z" fill="#FF6A00"/>
<path opacity="0.096774" d="M42.8221 16.5482C43.7744 17.5104 44.6428 18.7523 45.4559 20.3442C43.1675 21.3597 41.7197 24.3243 40.2895 25.6854C39.3712 24.7094 38.3508 23.7751 37.2295 22.5954C39.0001 22.1595 40.6092 19.0064 42.8221 16.5482Z" fill="#FF6A00"/>
<path opacity="0.129" d="M42.8033 16.5968C43.7557 17.5588 44.6096 18.7655 45.4229 20.3572C43.1828 21.3937 41.7544 24.3088 40.3241 25.6698C39.4058 24.6939 38.4194 23.7458 37.2639 22.5802C39.0346 22.1444 40.6242 19.0407 42.8033 16.5968Z" fill="#FF6A00"/>
<path opacity="0.1613" d="M42.7349 16.6283C43.6728 17.5553 44.5412 18.7971 45.34 20.3538C43.134 21.3765 41.7254 24.2428 40.2952 25.6039C39.3769 24.6279 38.3905 23.6798 37.2351 22.5141C39.0201 22.1134 40.59 19.0584 42.7349 16.6283Z" fill="#FF6A00"/>
<path opacity="0.1935" d="M42.7157 16.675C43.6539 17.6016 44.5224 18.843 45.3555 20.3853C43.1634 21.4426 41.7598 24.2239 40.3777 25.6056C39.4736 24.665 38.4726 23.6822 37.3313 22.552C39.0395 22.0602 40.6044 19.0903 42.7157 16.675Z" fill="#FF6A00"/>
<path opacity="0.2258" d="M42.6803 16.6907C43.6184 17.6174 44.5066 18.81 45.3055 20.3662C43.1476 21.4096 41.7781 24.1772 40.3817 25.5239C39.4776 24.5833 38.491 23.6355 37.3354 22.4702C39.0382 22.0623 40.6031 19.0923 42.6803 16.6907Z" fill="#FF6A00"/>
<path opacity="0.2581" d="M42.6293 16.755C43.5676 17.6813 44.456 18.8734 45.2551 20.429C43.1453 21.4932 41.7466 24.1898 40.3983 25.5571C39.4941 24.6169 38.5073 23.6694 37.3658 22.5395C39.0599 22.0128 40.5858 19.1417 42.6293 16.755Z" fill="#FF6A00"/>
<path opacity="0.2903" d="M42.6108 16.8037C43.5491 17.73 44.4375 18.9221 45.2222 20.4428C43.1465 21.4931 41.782 24.1758 40.3996 25.5571C39.4954 24.6168 38.5086 23.6693 37.3671 22.5394C39.0612 22.0127 40.587 19.1416 42.6108 16.8037Z" fill="#FF6A00"/>
<path opacity="0.3226" d="M42.5762 16.8193C43.5146 17.7456 44.3887 18.9024 45.1879 20.4579C43.1263 21.5431 41.7669 24.1414 40.4185 25.5085C39.5142 24.5684 38.5273 23.6211 37.3858 22.4914C39.08 21.9647 40.6007 19.178 42.5762 16.8193Z" fill="#FF6A00"/>
<path opacity="0.3548" d="M42.5562 16.8661C43.4947 17.7922 44.3688 18.9489 45.1878 20.4551C43.1601 21.5262 41.8347 24.1103 40.4861 25.4772C39.5817 24.5372 38.5947 23.59 37.4675 22.4955C39.0649 21.9267 40.566 19.1893 42.5562 16.8661Z" fill="#FF6A00"/>
<path opacity="0.3871" d="M42.4886 16.8975C43.4128 17.7884 44.3014 18.9799 45.1205 20.4859C43.1411 21.578 41.7867 24.0916 40.4721 25.4444C39.5677 24.5046 38.595 23.5925 37.4532 22.4632C39.0992 21.9156 40.5665 19.1926 42.4886 16.8975Z" fill="#FF6A00"/>
<path opacity="0.4194" d="M42.4697 16.946C43.394 17.8368 44.2683 18.9931 45.0874 20.4989C43.1079 21.5908 41.8215 24.0762 40.5068 25.4287C39.6022 24.4891 38.6295 23.5772 37.502 22.4831C39.0853 21.8795 40.5815 19.2269 42.4697 16.946Z" fill="#FF6A00"/>
<path opacity="0.4516" d="M42.4508 16.9946C43.3752 17.8853 44.2496 19.0414 45.0688 20.5469C43.1375 21.6597 41.8222 24.0747 40.5415 25.4131C39.6368 24.4736 38.6639 23.5619 37.5363 22.4679C39.1198 21.8644 40.548 19.2401 42.4508 16.9946Z" fill="#FF6A00"/>
<path opacity="0.4839" d="M42.4162 17.0103C43.3407 17.9008 44.2493 19.0428 45.02 20.5269C43.1227 21.6257 41.8413 24.0263 40.5605 25.3646C39.6557 24.4252 38.6827 23.5137 37.555 22.4199C39.1045 21.8304 40.5473 19.2415 42.4162 17.0103Z" fill="#FF6A00"/>
<path opacity="0.5161" d="M42.3632 17.0728C43.3219 17.9492 44.1821 19.0699 45.0014 20.5749C43.138 21.6596 41.8421 24.0248 40.5951 25.349C39.6903 24.4098 38.7172 23.4984 37.6038 22.4398C39.1246 21.7804 40.5623 19.2758 42.3632 17.0728Z" fill="#FF6A00"/>
<path opacity="0.5484" d="M42.3443 17.1214C43.3031 17.9976 44.1633 19.1182 44.9684 20.5879C43.1191 21.7074 41.8625 23.9745 40.6298 25.3333C39.7249 24.3943 38.7517 23.4831 37.6381 22.4247C39.125 21.7793 40.5287 19.289 42.3443 17.1214Z" fill="#FF6A00"/>
<path opacity="0.5806" d="M42.3097 17.137C43.2685 18.0131 44.1289 19.1335 44.934 20.6029C43.1187 21.7083 41.8619 23.975 40.6488 25.2848C39.7437 24.346 38.7849 23.4699 37.6568 22.3767C39.1438 21.7314 40.5424 19.3254 42.3097 17.137Z" fill="#FF6A00"/>
<path opacity="0.6129" d="M42.2578 17.2013C43.2168 18.0773 44.0773 19.1974 44.868 20.6316C43.0866 21.7229 41.8494 23.9404 40.6506 25.2849C39.7454 24.3463 38.7864 23.4703 37.6726 22.4123C39.1454 21.7322 40.5442 19.3266 42.2578 17.2013Z" fill="#FF6A00"/>
<path opacity="0.6452" d="M42.2394 17.25C43.1839 18.091 44.0444 19.2111 44.8495 20.6804C43.1167 21.7928 41.865 23.9753 40.6518 25.2849C39.7467 24.3462 38.7877 23.4702 37.6739 22.4122C39.1664 21.6832 40.5113 19.3403 42.2394 17.25Z" fill="#FF6A00"/>
<path opacity="0.6774" d="M42.2027 17.2639C43.1472 18.1049 44.0076 19.2251 44.8325 20.6456C43.0997 21.758 41.8678 23.8918 40.6887 25.1876C39.7836 24.2488 38.8247 23.3728 37.7254 22.3497C39.164 21.6834 40.5233 19.3754 42.2027 17.2639Z" fill="#FF6A00"/>
<path opacity="0.7097" d="M42.1846 17.3123C43.1294 18.153 43.99 19.2728 44.8151 20.6926C43.1159 21.7908 41.9178 23.9098 40.7384 25.205C39.8331 24.2667 38.8739 23.391 37.7743 22.3683C39.1845 21.6324 40.5244 19.3742 42.1846 17.3123Z" fill="#FF6A00"/>
<path opacity="0.7419" d="M42.1319 17.3767C43.0767 18.2175 43.9229 19.3023 44.7479 20.7222C43.083 21.8065 41.8704 23.8907 40.7252 25.1721C39.8343 24.2687 38.8607 23.358 37.7611 22.3353C39.1713 21.5993 40.4915 19.3898 42.1319 17.3767Z" fill="#FF6A00"/>
<path opacity="0.7742" d="M42.0981 17.3923C43.0431 18.2327 43.9236 19.3032 44.7147 20.7364C43.0979 21.8413 41.8903 23.8408 40.7592 25.1566C39.9022 24.2397 38.9086 23.3783 37.8088 22.356C39.2049 21.5854 40.5058 19.4256 42.0981 17.3923Z" fill="#FF6A00"/>
<path opacity="0.8065" d="M42.0783 17.441C43.0233 18.2814 43.9039 19.3519 44.6805 20.7502C43.0637 21.8552 41.8903 23.8409 40.7789 25.1079C39.9219 24.191 38.9284 23.3295 37.8286 22.3072C39.1905 21.5505 40.5058 19.4255 42.0783 17.441Z" fill="#FF6A00"/>
<path opacity="0.8387" d="M42.0582 17.4877C43.0033 18.3279 43.8839 19.3982 44.6948 20.7824C43.112 21.8733 41.9581 23.8098 40.8466 25.0766C39.9895 24.1599 38.9958 23.2986 37.8959 22.2764C39.2238 21.5337 40.471 19.4369 42.0582 17.4877Z" fill="#FF6A00"/>
<path opacity="0.871" d="M41.9906 17.519C42.9358 18.3591 43.8021 19.3943 44.6131 20.7782C43.0642 21.855 41.9102 23.7911 40.8326 25.0438C39.9755 24.1272 38.9817 23.2661 37.8816 22.2442C39.2097 21.5016 40.4859 19.4751 41.9906 17.519Z" fill="#FF6A00"/>
<path opacity="0.9032" d="M41.9716 17.5676C42.917 18.4075 43.7834 19.4425 44.5945 20.8261C43.0939 21.9237 41.945 23.7758 40.8674 25.0282C40.0101 24.1118 39.0161 23.2509 37.9303 22.2641C39.2101 21.5006 40.4865 19.4745 41.9716 17.5676Z" fill="#FF6A00"/>
<path opacity="0.9355" d="M41.9519 17.6163C42.8972 18.4562 43.7636 19.4912 44.5603 20.8399C43.0598 21.9376 41.9451 23.7759 40.8871 24.9795C40.0298 24.0631 39.0359 23.2021 37.9501 22.2153C39.2298 21.4518 40.4523 19.4883 41.9519 17.6163Z" fill="#FF6A00"/>
<path opacity="0.9677" d="M41.918 17.6318C42.8492 18.4364 43.7302 19.5059 44.5271 20.854C43.0603 21.9374 41.965 23.7261 40.9211 24.9641C40.0636 24.0481 39.0694 23.1875 37.9833 22.2011C39.2292 21.4518 40.4666 19.524 41.918 17.6318Z" fill="#FF6A00"/>
<path d="M41.8661 17.6961C42.7974 18.5006 43.6642 19.5349 44.4756 20.9176C43.0427 21.9869 41.9328 23.7403 40.9229 24.9642C40.0653 24.0484 39.071 23.188 37.9992 22.2367C39.265 21.4388 40.4684 19.5253 41.8661 17.6961Z" fill="#FF6A00"/>
<path opacity="0.032258" d="M36.2023 7.66214C37.2739 8.6714 38.3079 9.7172 39.3795 10.7265C38.463 12.6786 37.6584 14.7696 36.9866 17.085C36.0288 17.1676 35.0709 17.2502 34.0755 17.3693C34.5363 14.198 35.2382 10.9337 36.2023 7.66214Z" fill="#C100A1"/>
<path opacity="0.064516" d="M36.1858 7.78398C37.2253 8.7891 38.2649 9.79422 39.3099 10.7586C38.3989 12.6701 37.6264 14.7652 36.9658 16.9991C36.0079 17.0817 35.0501 17.1643 34.0922 17.2469C34.542 14.157 35.2328 10.9742 36.1858 7.78398Z" fill="#C100A1"/>
<path opacity="0.096774" d="M36.1692 7.90608C37.2142 8.87051 38.2271 9.83077 39.2667 10.8359C38.3933 12.7108 37.6264 14.7652 36.9712 16.9584C36.0134 17.041 35.0931 17.087 34.1353 17.1696C34.5795 14.1204 35.2593 11.019 36.1692 7.90608Z" fill="#C100A1"/>
<path opacity="0.129" d="M36.1526 8.02791C37.1656 8.98819 38.184 9.90776 39.197 10.868C38.3237 12.7429 37.5943 14.7608 36.9447 16.9133C36.0245 16.9593 35.0667 17.0418 34.1464 17.0878C34.6172 14.0835 35.2859 11.0636 36.1526 8.02791Z" fill="#C100A1"/>
<path opacity="0.1613" d="M36.168 8.15463C37.1865 9.0742 38.1728 9.9896 39.1913 10.9092C38.3556 12.7475 37.6318 14.7246 37.0198 16.8406C36.0995 16.8866 35.1793 16.9326 34.259 16.9786C34.6546 14.0474 35.2802 11.1047 36.168 8.15463Z" fill="#C100A1"/>
<path opacity="0.1935" d="M36.1571 8.23576C37.1435 9.15116 38.1353 10.0259 39.1217 10.9413C38.2915 12.7389 37.6053 14.6795 36.9988 16.7547C36.0785 16.8007 35.1583 16.8467 34.2701 16.8969C34.6868 14.0513 35.3069 11.1493 36.1571 8.23576Z" fill="#C100A1"/>
<path opacity="0.2258" d="M36.1405 8.35788C37.1323 9.2326 38.0921 10.1031 39.084 10.9779C38.2914 12.7389 37.5732 14.6753 37.0043 16.7141C36.1161 16.7642 35.2014 16.7695 34.3133 16.8196C34.6923 14.0105 35.3334 11.1941 36.1405 8.35788Z" fill="#C100A1"/>
<path opacity="0.2581" d="M36.1559 8.48413C37.1212 9.314 38.081 10.1846 39.0463 11.0145C38.2538 12.7755 37.5787 14.6346 37.0154 16.6326C36.1328 16.642 35.2446 16.6922 34.362 16.7016C34.7299 13.9739 35.36 11.2389 36.1559 8.48413Z" fill="#C100A1"/>
<path opacity="0.2903" d="M36.1394 8.60585C37.0726 9.43158 38.0379 10.2615 38.9711 11.0872C38.2163 12.8117 37.5467 14.6301 36.989 16.5874C36.1064 16.5968 35.2238 16.6061 34.3412 16.6155C34.7676 13.9369 35.3545 11.2792 36.1394 8.60585Z" fill="#C100A1"/>
<path opacity="0.3226" d="M36.1284 8.68723C37.0671 9.47228 38.0003 10.298 38.9391 11.0831C38.1898 12.7668 37.5523 14.5894 37.0057 16.4653C36.1231 16.4746 35.2725 16.4881 34.3899 16.4975C34.7999 13.941 35.3812 11.324 36.1284 8.68723Z" fill="#C100A1"/>
<path opacity="0.3548" d="M36.1118 8.80909C37.0185 9.58998 37.9572 10.375 38.8638 11.1559C38.1521 12.8031 37.5202 14.585 36.9736 16.4608C36.123 16.4744 35.278 16.4472 34.3954 16.4565C34.8374 13.9042 35.4077 11.3687 36.1118 8.80909Z" fill="#C100A1"/>
<path opacity="0.3871" d="M36.1272 8.93562C37.0393 9.67583 37.946 10.4568 38.8581 11.197C38.152 12.8034 37.5256 14.5446 37.0166 16.3839C36.1716 16.3567 35.3211 16.3701 34.4761 16.3429C34.8428 13.8637 35.4021 11.4096 36.1272 8.93562Z" fill="#C100A1"/>
<path opacity="0.4194" d="M36.1163 9.01677C36.9963 9.75281 37.9085 10.493 38.7885 11.2291C38.1145 12.8397 37.4992 14.4994 36.9957 16.298C36.1507 16.2708 35.3377 16.2477 34.4872 16.2612C34.875 13.8676 35.4288 11.4542 36.1163 9.01677Z" fill="#C100A1"/>
<path opacity="0.4516" d="M36.0997 9.13883C36.9852 9.83421 37.8653 10.5703 38.7509 11.2657C38.0824 12.8356 37.4992 14.4995 37.0068 16.2166C36.1939 16.1935 35.3489 16.1663 34.536 16.1432C34.9127 13.831 35.4553 11.499 36.0997 9.13883Z" fill="#C100A1"/>
<path opacity="0.4839" d="M36.1151 9.26513C36.9686 9.95635 37.8542 10.6518 38.7077 11.343C38.0768 12.8764 37.4992 14.4995 37.0123 16.1759C36.1994 16.1528 35.3865 16.1297 34.579 16.0659C34.9502 13.7944 35.4498 11.5397 36.1151 9.26513Z" fill="#C100A1"/>
<path opacity="0.5161" d="M36.1042 9.34652C36.9631 9.99706 37.8166 10.6883 38.6756 11.3388C38.0503 12.8315 37.5103 14.4181 37.0289 16.0538C36.216 16.0307 35.4407 15.971 34.6278 15.9479C34.9879 13.7578 35.4764 11.5845 36.1042 9.34652Z" fill="#C100A1"/>
<path opacity="0.5484" d="M36.0876 9.46836C36.9145 10.1147 37.7735 10.7653 38.6004 11.4117C38.0127 12.8678 37.4462 14.4095 37.0024 16.0087C36.2271 15.949 35.4142 15.9258 34.6389 15.8661C34.988 13.7575 35.5085 11.5884 36.0876 9.46836Z" fill="#C100A1"/>
<path opacity="0.5806" d="M36.0711 9.59022C36.898 10.2366 37.7303 10.8423 38.5252 11.4845C37.943 12.8999 37.414 14.4051 36.9758 15.9636C36.2005 15.9038 35.4252 15.8441 34.6444 15.8251C35.0255 13.7207 35.5029 11.6288 36.0711 9.59022Z" fill="#C100A1"/>
<path opacity="0.6129" d="M36.0921 9.67586C36.8924 10.2774 37.7248 10.8832 38.5251 11.4848C37.9485 12.8594 37.4573 14.328 36.9926 15.8416C36.2173 15.7818 35.4741 15.7262 34.6988 15.6665C35.0633 13.6842 35.5296 11.6737 36.0921 9.67586Z" fill="#C100A1"/>
<path opacity="0.6452" d="M36.0755 9.79771C36.8759 10.3993 37.6817 10.9602 38.4499 11.5576C37.9055 12.9365 37.4252 14.3236 36.9661 15.7965C36.2229 15.7408 35.4476 15.681 34.7099 15.5847C35.0955 13.6881 35.5241 11.7142 36.0755 9.79771Z" fill="#C100A1"/>
<path opacity="0.6774" d="M36.0645 9.87911C36.8383 10.4358 37.6386 11.0375 38.4123 11.5942C37.8734 12.9323 37.3987 14.2788 36.9771 15.715C36.2339 15.6594 35.4962 15.5631 34.753 15.5074C35.1331 13.6515 35.5507 11.759 36.0645 9.87911Z" fill="#C100A1"/>
<path opacity="0.7097" d="M36.08 10.0054C36.8537 10.5622 37.5954 11.1147 38.3691 11.6715C37.8678 12.9731 37.3986 14.2788 36.9826 15.6744C36.2449 15.578 35.5338 15.5265 34.7961 15.4302C35.1385 13.6107 35.5772 11.8039 36.08 10.0054Z" fill="#C100A1"/>
<path opacity="0.7419" d="M36.069 10.0868C36.8162 10.5987 37.5579 11.1513 38.3371 11.6674C37.8413 12.9282 37.4097 14.1974 36.9992 15.5523C36.2936 15.4601 35.5825 15.4085 34.8448 15.3121C35.1708 13.6149 35.5718 11.8445 36.069 10.0868Z" fill="#C100A1"/>
<path opacity="0.7742" d="M36.0525 10.2086C36.7996 10.7205 37.5147 11.2283 38.2619 11.7402C37.8037 12.9645 37.3722 14.2337 36.9727 15.5071C36.2671 15.4149 35.5615 15.3226 34.8559 15.2304C35.2084 13.578 35.5984 11.8891 36.0525 10.2086Z" fill="#C100A1"/>
<path opacity="0.8065" d="M36.0735 10.2945C36.7886 10.8022 37.5091 11.2693 38.2563 11.7812C37.8036 12.9648 37.3776 14.1933 37.0157 15.4302C36.3101 15.3379 35.6366 15.2498 34.931 15.1576C35.2459 13.5417 35.6249 11.9342 36.0735 10.2945Z" fill="#C100A1"/>
<path opacity="0.8387" d="M36.0569 10.4165C36.7775 10.8835 37.4605 11.3871 38.181 11.8541C37.7339 12.997 37.3454 14.189 36.989 15.3851C36.3154 15.2971 35.6419 15.209 34.9739 15.0802C35.2778 13.5458 35.6193 11.9748 36.0569 10.4165Z" fill="#C100A1"/>
<path opacity="0.871" d="M36.0459 10.4979C36.7344 10.9607 37.4229 11.4236 38.1434 11.8907C37.7338 12.997 37.3563 14.1076 37 15.3038C36.3264 15.2157 35.6584 15.0869 35.017 15.003C35.2833 13.505 35.6459 12.0197 36.0459 10.4979Z" fill="#C100A1"/>
<path opacity="0.9032" d="M36.0613 10.6242C36.7498 11.0871 37.4117 11.5051 38.1002 11.968C37.6961 13.0336 37.3241 14.1034 37.0053 15.2631C36.3693 15.1384 35.6958 15.0503 35.0544 14.9664C35.3207 13.4685 35.6722 12.0646 36.0613 10.6242Z" fill="#C100A1"/>
<path opacity="0.9355" d="M36.0504 10.7055C36.7123 11.1236 37.3741 11.5416 38.0626 12.0046C37.6962 13.0337 37.3297 14.0628 37.0219 15.141C36.3859 15.0163 35.7445 14.9323 35.1086 14.8077C35.3529 13.4726 35.6669 12.1052 36.0504 10.7055Z" fill="#C100A1"/>
<path opacity="0.9677" d="M36.0339 10.8274C36.6957 11.2455 37.3255 11.6594 37.9874 12.0774C37.6264 13.0658 37.2975 14.0584 36.9953 15.0959C36.3593 14.9712 35.7554 14.8507 35.114 14.7667C35.3904 13.4358 35.6934 12.1499 36.0339 10.8274Z" fill="#C100A1"/>
<path d="M36.0549 10.9132C36.6847 11.3271 37.3199 11.7003 37.9818 12.1184C37.6263 13.0661 37.3029 14.0179 37.0382 15.0189C36.4344 14.8984 35.7984 14.7736 35.1946 14.6531C35.3958 13.3953 35.6933 12.1501 36.0549 10.9132Z" fill="#C100A1"/>
<path opacity="0.032258" d="M2.87183 20.494C2.70817 19.4299 2.58262 18.3616 2.41896 17.2975C3.82586 16.5844 5.23075 15.741 6.65998 14.7083C7.24941 15.0917 7.83885 15.4752 8.46639 15.8544C6.77356 17.4755 4.89992 19.0416 2.87183 20.494Z" fill="#C100A1"/>
<path opacity="0.064516" d="M2.93618 20.4312C2.78915 19.3839 2.64212 18.3366 2.4736 17.3103C3.85896 16.6182 5.24718 15.7579 6.63339 14.7672C7.2228 15.1506 7.81221 15.534 8.40162 15.9175C6.75183 17.4966 4.92123 19.0208 2.93618 20.4312Z" fill="#C100A1"/>
<path opacity="0.096774" d="M3.00073 20.3683C2.83221 19.342 2.68032 18.3325 2.5333 17.2852C3.88052 16.5972 5.24722 15.7579 6.61192 14.7882C7.20131 15.1716 7.7526 15.5592 8.342 15.9426C6.71372 17.5008 4.92614 18.983 3.00073 20.3683Z" fill="#C100A1"/>
<path opacity="0.129" d="M3.06509 20.3055C2.9132 19.296 2.73982 18.3075 2.58793 17.298C3.93513 16.6101 5.26369 15.7749 6.60687 14.8262C7.15815 15.2137 7.74753 15.5972 8.29881 15.9848C6.67543 17.5051 4.93086 18.9453 3.06509 20.3055Z" fill="#C100A1"/>
<path opacity="0.1613" d="M3.11323 20.2255C2.93986 19.237 2.78309 18.2654 2.60972 17.2769C3.91879 16.593 5.22586 15.7788 6.53091 14.8343C7.08218 15.2219 7.63346 15.6095 8.18473 15.9971C6.63759 17.5091 4.95263 18.9242 3.11323 20.2255Z" fill="#C100A1"/>
<path opacity="0.1935" d="M3.15603 20.1837C2.99928 19.212 2.82103 18.2613 2.66428 17.2897C3.95185 16.6269 5.2208 15.8168 6.50436 14.8932C7.05563 15.2808 7.60689 15.6684 8.14154 16.0392C6.62076 17.4924 4.95731 18.8865 3.15603 20.1837Z" fill="#C100A1"/>
<path opacity="0.2258" d="M3.22058 20.1207C3.04234 19.1701 2.88072 18.2362 2.70248 17.2856C3.95192 16.6269 5.23746 15.8337 6.48288 14.9142C7.01751 15.285 7.54728 15.6936 8.08191 16.0643C6.59928 17.5134 4.96222 18.8487 3.22058 20.1207Z" fill="#C100A1"/>
<path opacity="0.2581" d="M3.26848 20.041C3.08538 19.1281 2.92378 18.1943 2.74068 17.2814C3.99007 16.6227 5.21596 15.8546 6.43984 14.9562C6.95297 15.3479 7.48758 15.7187 8.0007 16.1105C6.5611 17.5175 4.96708 18.8109 3.26848 20.041Z" fill="#C100A1"/>
<path opacity="0.2903" d="M3.3328 19.9783C3.16634 19.0822 2.98324 18.1693 2.81678 17.2733C4.028 16.6187 5.23235 15.8716 6.43468 14.9941C6.94778 15.3859 7.46087 15.7777 7.97396 16.1695C6.52269 17.5219 4.98834 18.7901 3.3328 19.9783Z" fill="#C100A1"/>
<path opacity="0.3226" d="M3.37576 19.9363C3.18781 19.0612 3.02135 18.1652 2.83341 17.2901C4.02311 16.6565 5.2108 15.8925 6.37013 15.057C6.88321 15.4488 7.37967 15.8238 7.89275 16.2156C6.50597 17.505 4.99315 18.7523 3.37576 19.9363Z" fill="#C100A1"/>
<path opacity="0.3548" d="M3.44015 19.8735C3.26882 19.0153 3.08088 18.1402 2.90955 17.282C4.06114 16.6525 5.22733 15.9096 6.38665 15.074C6.88311 15.449 7.35808 15.8449 7.87116 16.2367C6.46778 17.5093 4.99794 18.7146 3.44015 19.8735Z" fill="#C100A1"/>
<path opacity="0.3871" d="M3.48823 19.7936C3.29543 18.9564 3.12412 18.0981 2.93132 17.2609C4.06137 16.6524 5.20602 15.9304 6.32719 15.099C6.80213 15.495 7.29856 15.8699 7.77351 16.2659C6.44639 17.5303 5.01959 18.6935 3.48823 19.7936Z" fill="#C100A1"/>
<path opacity="0.4194" d="M3.53103 19.7517C3.35485 18.9313 3.16206 18.0941 2.98588 17.2737C4.09929 16.6484 5.20097 15.9684 6.30063 15.158C6.77557 15.5539 7.2339 15.933 7.73033 16.308C6.42958 17.5135 5.02428 18.6558 3.53103 19.7517Z" fill="#C100A1"/>
<path opacity="0.4516" d="M3.59554 19.6888C3.39789 18.8894 3.22172 18.069 3.02407 17.2695C4.11595 16.6652 5.20095 15.9683 6.25759 15.1999C6.71589 15.579 7.19081 15.975 7.64911 16.3541C6.39139 17.5177 5.02913 18.618 3.59554 19.6888Z" fill="#C100A1"/>
<path opacity="0.4839" d="M3.64346 19.609C3.46243 18.8264 3.26479 18.027 3.08376 17.2444C4.13751 16.6442 5.20099 15.9683 6.23612 15.2209C6.6944 15.6 7.15268 15.9791 7.58949 16.3793C6.35329 17.5219 5.05064 18.5971 3.64346 19.609Z" fill="#C100A1"/>
<path opacity="0.5161" d="M3.68641 19.5671C3.48391 18.8055 3.3029 18.0228 3.10039 17.2612C4.13262 16.682 5.15797 16.0103 6.17157 15.2838C6.62984 15.663 7.05001 16.0463 7.50827 16.4254C6.31509 17.526 5.05546 18.5592 3.68641 19.5671Z" fill="#C100A1"/>
<path opacity="0.5484" d="M3.75077 19.5043C3.56489 18.7595 3.36241 17.9978 3.17653 17.253C4.17062 16.678 5.19106 16.0441 6.16654 15.3217C6.58669 15.7051 7.04494 16.0842 7.46509 16.4675C6.31491 17.5262 5.03871 18.5426 3.75077 19.5043Z" fill="#C100A1"/>
<path opacity="0.5806" d="M3.81517 19.4415C3.62929 18.6967 3.42194 17.9729 3.25267 17.2449C4.22527 16.6908 5.2076 16.0611 6.16158 15.3597C6.58172 15.7431 7.00186 16.1264 7.44349 16.4887C6.27672 17.5305 5.06012 18.5217 3.81517 19.4415Z" fill="#C100A1"/>
<path opacity="0.6129" d="M3.84159 19.3826C3.65087 18.6756 3.44355 17.9518 3.25283 17.2448C4.20385 16.7117 5.14799 16.086 6.09701 15.4225C6.51711 15.8059 6.9206 16.1724 7.3407 16.5557C6.23848 17.5346 5.06494 18.4839 3.84159 19.3826Z" fill="#C100A1"/>
<path opacity="0.6452" d="M3.90595 19.3198C3.71525 18.6128 3.50306 17.9268 3.32897 17.2366C4.26333 16.6866 5.16448 16.103 6.09198 15.4604C6.49544 15.827 6.91552 16.2103 7.29751 16.5978C6.22169 17.5178 5.0863 18.463 3.90595 19.3198Z" fill="#C100A1"/>
<path opacity="0.6774" d="M3.94892 19.2778C3.75336 18.6087 3.56266 17.9016 3.36709 17.2325C4.27996 16.7035 5.15961 16.1408 6.04899 15.5024C6.45245 15.8689 6.83442 16.2565 7.23788 16.623C6.18356 17.522 5.09115 18.4252 3.94892 19.2778Z" fill="#C100A1"/>
<path opacity="0.7097" d="M3.99685 19.1981C3.80129 18.5289 3.62234 17.8765 3.42678 17.2073C4.30152 16.6825 5.15966 16.1408 6.02752 15.5234C6.40948 15.9109 6.79631 16.2606 7.17826 16.6482C6.16208 17.5431 5.09607 18.3874 3.99685 19.1981Z" fill="#C100A1"/>
<path opacity="0.7419" d="M4.03978 19.1561C3.83937 18.5247 3.66044 17.8724 3.44342 17.2241C4.29664 16.7203 5.11664 16.1828 5.96299 15.5863C6.32832 15.957 6.71512 16.3067 7.09705 16.6943C6.14534 17.5262 5.11747 18.3664 4.03978 19.1561Z" fill="#C100A1"/>
<path opacity="0.7742" d="M4.10414 19.0933C3.90375 18.4619 3.71996 17.8474 3.51956 17.216C4.33465 16.7163 5.1546 16.1787 5.95796 15.6243C6.32326 15.995 6.68857 16.3657 7.05387 16.7364C6.10708 17.5305 5.12222 18.3287 4.10414 19.0933Z" fill="#C100A1"/>
<path opacity="0.8065" d="M4.13066 19.0343C3.94688 18.4198 3.74163 17.8262 3.54125 17.1949C4.33484 16.7161 5.13329 16.1996 5.89854 15.6493C6.26383 16.02 6.61252 16.3739 6.97781 16.7446C6.06912 17.5345 5.12723 18.2908 4.13066 19.0343Z" fill="#C100A1"/>
<path opacity="0.8387" d="M4.19511 18.9714C3.98986 18.3779 3.82268 17.7802 3.61742 17.1867C4.38954 16.729 5.14992 16.2166 5.8937 15.6873C6.24239 16.0412 6.59108 16.395 6.9183 16.7699C6.05256 17.5178 5.14874 18.2699 4.19511 18.9714Z" fill="#C100A1"/>
<path opacity="0.871" d="M4.23808 18.9295C4.04944 18.3528 3.8608 17.7761 3.65555 17.1825C4.38957 16.729 5.10698 16.2586 5.85073 15.7293C6.19941 16.0832 6.52661 16.4581 6.85868 16.7951C6.03105 17.5389 5.1536 18.2321 4.23808 18.9295Z" fill="#C100A1"/>
<path opacity="0.9032" d="M4.28604 18.8497C4.09741 18.273 3.90391 17.7341 3.71528 17.1574C4.42779 16.7249 5.12371 16.2755 5.82935 15.7503C6.13994 16.1084 6.4886 16.4623 6.82065 16.7993C5.99305 17.5431 5.15858 18.1943 4.28604 18.8497Z" fill="#C100A1"/>
<path opacity="0.9355" d="M4.32896 18.8077C4.13548 18.2688 3.942 17.73 3.75339 17.1532C4.42778 16.7248 5.10218 16.2964 5.76483 15.8132C6.07539 16.1713 6.40742 16.5084 6.71797 16.8664C5.97631 17.5262 5.17997 18.1733 4.32896 18.8077Z" fill="#C100A1"/>
<path opacity="0.9677" d="M4.39335 18.7449C4.19988 18.206 4.02301 17.684 3.82954 17.1451C4.48244 16.7377 5.11873 16.3134 5.75989 15.8513C6.07043 16.2093 6.36437 16.5506 6.69638 16.8876C5.93815 17.5306 5.18479 18.1356 4.39335 18.7449Z" fill="#C100A1"/>
<path d="M4.41987 18.686C4.24301 18.1639 4.04469 17.6629 3.85123 17.124C4.48262 16.7375 5.09741 16.3343 5.70047 15.8763C5.9944 16.2175 6.30492 16.5756 6.59885 16.9168C5.91679 17.5515 5.18492 18.1356 4.41987 18.686Z" fill="#C100A1"/>
</svg>
